<?xml version="1.0" encoding="UTF-8"?>
<svg version="1.1" xmlns="http://www.w3.org/2000/svg" width="512" height="512">
<path d="M0 0 C1.45496879 -0.00258678 2.90993687 -0.00560081 4.36490399 -0.0090034 C8.35016948 -0.01704014 12.33541692 -0.01886111 16.32068956 -0.01960087 C20.62425934 -0.02145727 24.92781988 -0.02900762 29.23138428 -0.03573608 C38.63670943 -0.04929697 48.04203031 -0.05534082 57.44736362 -0.05974674 C63.32579116 -0.06251335 69.20421707 -0.0667515 75.08264351 -0.07125092 C91.37409455 -0.08344139 107.66554428 -0.09374066 123.95699978 -0.09712601 C124.99897664 -0.09734557 126.0409535 -0.09756514 127.11450541 -0.09779136 C128.15890939 -0.09800964 129.20331337 -0.09822791 130.27936596 -0.09845281 C132.39555895 -0.09889626 134.51175195 -0.09934283 136.62794495 -0.09979248 C137.67763929 -0.10001391 138.72733363 -0.10023534 139.80883688 -0.10046348 C156.8038281 -0.10440844 173.79877636 -0.12185425 190.79375099 -0.145152 C208.26294976 -0.16890551 225.732127 -0.1813297 243.20134217 -0.18249393 C253.00122008 -0.18340852 262.80104203 -0.18910615 272.60090446 -0.20731354 C280.94856962 -0.22276869 289.29616152 -0.22780325 297.64383828 -0.21957543 C301.8970898 -0.21568782 306.15019404 -0.21650524 310.40342712 -0.23063278 C341.84049158 -0.32883871 369.50775174 2.0267864 393.41236877 24.71856689 C407.71520611 39.77418514 417.82044736 60.44695969 417.84457779 81.47469997 C417.84841893 82.73490158 417.85226008 83.9951032 417.85621762 85.29349273 C417.85543747 86.6843246 417.85455871 88.07515641 417.85359192 89.46598816 C417.85617708 90.94952982 417.85919066 92.43307078 417.86259532 93.91661078 C417.8706512 97.99006713 417.87245411 102.06350584 417.87319279 106.13696921 C417.87504586 110.53187953 417.88259459 114.92678075 417.889328 119.32168579 C417.90290291 128.93153405 417.90893504 138.54137814 417.91333866 148.15123439 C417.91610311 154.15526782 417.9203409 160.15929964 417.92484283 166.16333199 C417.93703555 182.7961247 417.94733411 199.42891613 417.95071793 216.06171322 C417.95093749 217.12603672 417.95115706 218.19036023 417.95138328 219.28693596 C417.95160156 220.35377169 417.95181983 221.42060743 417.95204473 222.51977152 C417.95248819 224.68149563 417.95293475 226.84321974 417.9533844 229.00494385 C417.95360583 230.07722811 417.95382726 231.14951238 417.9540554 232.25429011 C417.95800058 249.61611793 417.97544604 266.97790371 417.99874392 284.33971529 C418.02248627 302.17722509 418.03492113 320.01471382 418.03608584 337.85223967 C418.03700111 347.86223456 418.04271567 357.8721747 418.06090546 367.88215446 C418.07634555 376.4088881 418.08140399 384.93555008 418.07316735 393.46229505 C418.06927435 397.80844592 418.07012398 402.15445264 418.0842247 406.50058556 C418.09704536 410.48887621 418.09569532 414.47691562 418.08363399 418.46520633 C418.08169099 419.89866501 418.08468983 421.33214199 418.09347835 422.76557504 C418.16549016 435.31806064 416.90898526 447.90750931 411.46315002 459.39044189 C411.0053717 460.38672607 411.0053717 460.38672607 410.53834534 461.40313721 C401.76419225 480.0425765 388.08719979 494.30859843 369.58815002 503.45294189 C368.97503967 503.76650635 368.36192932 504.0800708 367.73023987 504.40313721 C349.69725628 512.79370185 329.79354001 511.71797418 310.40837824 511.64868152 C306.03411551 511.63746798 301.65990392 511.64954815 297.28564453 511.65852356 C288.74049513 511.67238701 280.19549447 511.66495164 271.65035228 511.64984798 C261.68266046 511.63290666 251.71500486 511.63620824 241.74730309 511.63994206 C223.95504574 511.64580777 206.16285937 511.63169858 188.37062073 511.60699463 C171.13524212 511.58306683 153.89995828 511.57599627 136.66456604 511.58648682 C117.8577877 511.59791344 99.05105309 511.59980539 80.24427527 511.58538872 C78.23649609 511.58386301 76.22871691 511.58234265 74.22093773 511.58082771 C73.23327849 511.5800699 72.24561926 511.57931208 71.22803095 511.57853131 C64.29183345 511.5738028 57.35565558 511.57562963 50.41945839 511.57989311 C41.96070513 511.58483552 33.50204118 511.57876517 25.0433083 511.55899882 C20.73354001 511.54917348 16.4239073 511.54396991 12.11413193 511.55189133 C8.15960888 511.55901077 4.20535792 511.55199935 0.25087043 511.5342877 C-1.17010899 511.53028346 -2.59111373 511.53117424 -4.01208331 511.53780656 C-28.25833193 511.64118084 -49.45089741 504.05408535 -67.11888123 487.30841064 C-76.23765094 478.18964093 -83.05836639 468.07994258 -87.66184998 456.01544189 C-87.9004071 455.39540283 -88.13896423 454.77536377 -88.38475037 454.13653564 C-92.14825268 443.6689123 -92.58066875 433.17895721 -92.55427551 422.15115356 C-92.55801853 420.65647088 -92.56262263 419.16179015 -92.56800616 417.66711247 C-92.58017125 413.58599171 -92.5799834 409.50495332 -92.57761741 405.42381859 C-92.57720758 401.01190826 -92.58826414 396.60002376 -92.59773254 392.18812561 C-92.61430812 383.55382902 -92.61984054 374.91955974 -92.6209573 366.28524856 C-92.62190946 359.26238798 -92.62602813 352.23953636 -92.63235855 345.21667862 C-92.64996198 325.28025716 -92.65919889 305.34385718 -92.6576976 285.40742789 C-92.65761769 284.33383423 -92.65753778 283.26024057 -92.65745544 282.15411377 C-92.6573328 280.54174372 -92.6573328 280.54174372 -92.65720768 278.89680053 C-92.65639516 261.48489173 -92.67552678 244.0730695 -92.70373218 226.66118573 C-92.73250329 208.75796277 -92.74627013 190.85478199 -92.74454463 172.95153534 C-92.74388216 162.910238 -92.7493114 152.86903142 -92.77090073 142.82775497 C-92.78916829 134.27702503 -92.7934143 125.726427 -92.77988188 117.17568593 C-92.77338012 112.81908782 -92.77313314 108.46274236 -92.79058838 104.10616875 C-92.80644901 100.10618387 -92.80332507 96.10664921 -92.78602012 92.10667445 C-92.78297849 90.67131116 -92.78647347 89.23591315 -92.79774027 87.80059086 C-92.90499863 73.14829341 -90.24596041 59.1399038 -83.28684998 46.14044189 C-82.80731873 45.19040283 -82.32778748 44.24036377 -81.83372498 43.26153564 C-71.65684176 24.31573606 -53.68995157 10.20881013 -33.20872498 3.78497314 C-22.05888257 0.59540942 -11.52752476 -0.0082195 0 0 Z " fill="#FEFEFE" transform="translate(93.28684997558594,0.85955810546875)"/>
<path d="M0 0 C10 19.1 10 19.1 10 27 C13.96 26.67 17.92 26.34 22 26 C27.76211336 36.58149564 31.41186357 47.51238826 35.125 58.9375 C35.7374692 60.7964917 36.35074581 62.65521758 36.96484375 64.51367188 C39.76743232 73.01877955 42.51256738 81.53819441 45.11914062 90.10571289 C46.6080264 94.99782511 48.14618354 99.87420153 49.6875 104.75 C49.99494141 105.73226562 50.30238281 106.71453125 50.61914062 107.7265625 C50.91369141 108.65726562 51.20824219 109.58796875 51.51171875 110.546875 C51.77428467 111.38057617 52.03685059 112.21427734 52.30737305 113.07324219 C52.83843794 114.98050968 52.83843794 114.98050968 54 116 C54.2423085 115.35775482 54.484617 114.71550964 54.73426819 114.05380249 C75.36220814 59.39281235 75.36220814 59.39281235 84.375 36.5 C84.66061798 35.77077332 84.94623596 35.04154663 85.24050903 34.29022217 C89.77521836 22.72741534 94.44255774 11.11488451 100 0 C107.13875773 -0.23648059 113.63034831 0.60960434 120.625 2 C121.73077393 2.21640137 122.83654785 2.43280273 123.97583008 2.65576172 C133.2840539 4.53690217 142.4913602 6.76534723 151.6875 9.125 C152.35380432 9.29467285 153.02010864 9.4643457 153.706604 9.63916016 C168.40451199 13.4028428 168.40451199 13.4028428 173 16 C174.05859375 17.8046875 174.05859375 17.8046875 174 20 C173.22265625 22.9453125 173.22265625 22.9453125 172.0625 26.125 C170.54446697 29.97447943 170.54446697 29.97447943 170 34 C170.68626465 34.176521 171.3725293 34.35304199 172.07958984 34.53491211 C175.17866558 35.33344535 178.27683821 36.13542849 181.375 36.9375 C182.45523438 37.21529297 183.53546875 37.49308594 184.6484375 37.77929688 C186.1953125 38.18051758 186.1953125 38.18051758 187.7734375 38.58984375 C188.72653809 38.83597412 189.67963867 39.08210449 190.66162109 39.33569336 C193 40 193 40 195 41 C193.45955182 49.51003688 190.39816535 57.35733002 187.25 65.375 C186.95265961 66.136987 186.65531921 66.898974 186.34896851 67.68405151 C177.2061866 91.05517761 167.06839892 114.01705141 157 137 C156.56737854 137.98877136 156.13475708 138.97754272 155.68902588 139.99627686 C145.26079358 163.83017056 134.63103247 187.56527205 123.75 211.19580078 C121.61962935 215.8236506 119.50329465 220.4578901 117.38720703 225.09228516 C116.06302187 227.98722145 114.73159646 230.87871898 113.3984375 233.76953125 C111.81173673 237.21288788 110.2573057 240.66814824 108.7265625 244.13671875 C108.02611329 245.69534469 107.32559686 247.25394042 106.625 248.8125 C106.32722656 249.50682129 106.02945313 250.20114258 105.72265625 250.91650391 C103.79769695 255.14947214 102.16844598 257.0001779 98 259 C95.13867187 259.37231445 95.13867187 259.37231445 91.96875 259.36328125 C90.18452637 259.3643689 90.18452637 259.3643689 88.36425781 259.36547852 C87.08905273 259.34799561 85.81384766 259.3305127 84.5 259.3125 C83.1809668 259.303396 81.86193359 259.29429199 80.50292969 259.28491211 C63.27848518 259.10782179 46.13345074 257.71334507 29 256 C25.535 246.595 25.535 246.595 22 237 C16.54211497 236.5017717 16.54211497 236.5017717 11.08081055 236.04394531 C10.39801025 235.97272461 9.71520996 235.90150391 9.01171875 235.828125 C8.31522217 235.7652832 7.61872559 235.70244141 6.90112305 235.63769531 C4.22225283 234.73911961 3.54300865 233.3482973 2 231 C1.20310347 229.15476849 0.47677739 227.27831416 -0.19799805 225.38500977 C-0.60722504 224.24747757 -1.01645203 223.10994537 -1.43807983 221.9379425 C-1.87488068 220.70158554 -2.31168152 219.46522858 -2.76171875 218.19140625 C-3.22853814 216.88574693 -3.69596896 215.58030608 -4.16397095 214.27507019 C-5.41907623 210.7691699 -6.66560598 207.26027727 -7.91043472 203.75071716 C-9.21378175 200.08048967 -10.52466443 196.41295538 -11.8347168 192.74511719 C-13.93155579 186.8714825 -16.0237757 180.99622333 -18.11230469 175.11962891 C-20.54747966 168.26786836 -22.9936641 161.42010372 -25.4453125 154.57421875 C-37.97210251 119.56356434 -50.40335092 84.49760944 -61.875 49.125 C-62.23422546 48.01934692 -62.23422546 48.01934692 -62.60070801 46.89135742 C-64.09833017 42.2702582 -65.56017351 37.63944092 -67 33 C-67.20500122 32.35140015 -67.41000244 31.70280029 -67.62121582 31.0345459 C-68.22068038 29.12840727 -68.80204558 27.21660591 -69.3828125 25.3046875 C-69.71941895 24.20882324 -70.05602539 23.11295898 -70.40283203 21.98388672 C-71.04172025 18.79153519 -71.20529889 17.02580914 -70 14 C-66.84071901 11.57594735 -63.72589819 10.46440935 -59.88671875 9.53515625 C-58.89736328 9.29434326 -57.90800781 9.05353027 -56.88867188 8.80541992 C-55.83228516 8.56025635 -54.77589844 8.31509277 -53.6875 8.0625 C-52.59115234 7.80380127 -51.49480469 7.54510254 -50.36523438 7.27856445 C-34.07280886 3.52799966 -16.81118697 -0.35768483 0 0 Z " fill="#FDFDFD" transform="translate(194,113)"/>
<path d="M0 0 C1.45496879 -0.00258678 2.90993687 -0.00560081 4.36490399 -0.0090034 C8.35016948 -0.01704014 12.33541692 -0.01886111 16.32068956 -0.01960087 C20.62425934 -0.02145727 24.92781988 -0.02900762 29.23138428 -0.03573608 C38.63670943 -0.04929697 48.04203031 -0.05534082 57.44736362 -0.05974674 C63.32579116 -0.06251335 69.20421707 -0.0667515 75.08264351 -0.07125092 C91.37409455 -0.08344139 107.66554428 -0.09374066 123.95699978 -0.09712601 C124.99897664 -0.09734557 126.0409535 -0.09756514 127.11450541 -0.09779136 C128.15890939 -0.09800964 129.20331337 -0.09822791 130.27936596 -0.09845281 C132.39555895 -0.09889626 134.51175195 -0.09934283 136.62794495 -0.09979248 C137.67763929 -0.10001391 138.72733363 -0.10023534 139.80883688 -0.10046348 C156.8038281 -0.10440844 173.79877636 -0.12185425 190.79375099 -0.145152 C208.26294976 -0.16890551 225.732127 -0.1813297 243.20134217 -0.18249393 C253.00122008 -0.18340852 262.80104203 -0.18910615 272.60090446 -0.20731354 C280.94856962 -0.22276869 289.29616152 -0.22780325 297.64383828 -0.21957543 C301.8970898 -0.21568782 306.15019404 -0.21650524 310.40342712 -0.23063278 C341.84049158 -0.32883871 369.50775174 2.0267864 393.41236877 24.71856689 C407.71520611 39.77418514 417.82044736 60.44695969 417.84457779 81.47469997 C417.84841893 82.73490158 417.85226008 83.9951032 417.85621762 85.29349273 C417.85543747 86.6843246 417.85455871 88.07515641 417.85359192 89.46598816 C417.85617708 90.94952982 417.85919066 92.43307078 417.86259532 93.91661078 C417.8706512 97.99006713 417.87245411 102.06350584 417.87319279 106.13696921 C417.87504586 110.53187953 417.88259459 114.92678075 417.889328 119.32168579 C417.90290291 128.93153405 417.90893504 138.54137814 417.91333866 148.15123439 C417.91610311 154.15526782 417.9203409 160.15929964 417.92484283 166.16333199 C417.93703555 182.7961247 417.94733411 199.42891613 417.95071793 216.06171322 C417.95093749 217.12603672 417.95115706 218.19036023 417.95138328 219.28693596 C417.95160156 220.35377169 417.95181983 221.42060743 417.95204473 222.51977152 C417.95248819 224.68149563 417.95293475 226.84321974 417.9533844 229.00494385 C417.95360583 230.07722811 417.95382726 231.14951238 417.9540554 232.25429011 C417.95800058 249.61611793 417.97544604 266.97790371 417.99874392 284.33971529 C418.02248627 302.17722509 418.03492113 320.01471382 418.03608584 337.85223967 C418.03700111 347.86223456 418.04271567 357.8721747 418.06090546 367.88215446 C418.07634555 376.4088881 418.08140399 384.93555008 418.07316735 393.46229505 C418.06927435 397.80844592 418.07012398 402.15445264 418.0842247 406.50058556 C418.09704536 410.48887621 418.09569532 414.47691562 418.08363399 418.46520633 C418.08169099 419.89866501 418.08468983 421.33214199 418.09347835 422.76557504 C418.16549016 435.31806064 416.90898526 447.90750931 411.46315002 459.39044189 C411.0053717 460.38672607 411.0053717 460.38672607 410.53834534 461.40313721 C401.76419225 480.0425765 388.08719979 494.30859843 369.58815002 503.45294189 C368.97503967 503.76650635 368.36192932 504.0800708 367.73023987 504.40313721 C349.69725628 512.79370185 329.79354001 511.71797418 310.40837824 511.64868152 C306.03411551 511.63746798 301.65990392 511.64954815 297.28564453 511.65852356 C288.74049513 511.67238701 280.19549447 511.66495164 271.65035228 511.64984798 C261.68266046 511.63290666 251.71500486 511.63620824 241.74730309 511.63994206 C223.95504574 511.64580777 206.16285937 511.63169858 188.37062073 511.60699463 C171.13524212 511.58306683 153.89995828 511.57599627 136.66456604 511.58648682 C117.8577877 511.59791344 99.05105309 511.59980539 80.24427527 511.58538872 C78.23649609 511.58386301 76.22871691 511.58234265 74.22093773 511.58082771 C73.23327849 511.5800699 72.24561926 511.57931208 71.22803095 511.57853131 C64.29183345 511.5738028 57.35565558 511.57562963 50.41945839 511.57989311 C41.96070513 511.58483552 33.50204118 511.57876517 25.0433083 511.55899882 C20.73354001 511.54917348 16.4239073 511.54396991 12.11413193 511.55189133 C8.15960888 511.55901077 4.20535792 511.55199935 0.25087043 511.5342877 C-1.17010899 511.53028346 -2.59111373 511.53117424 -4.01208331 511.53780656 C-28.25833193 511.64118084 -49.45089741 504.05408535 -67.11888123 487.30841064 C-76.23765094 478.18964093 -83.05836639 468.07994258 -87.66184998 456.01544189 C-87.9004071 455.39540283 -88.13896423 454.77536377 -88.38475037 454.13653564 C-92.14825268 443.6689123 -92.58066875 433.17895721 -92.55427551 422.15115356 C-92.55801853 420.65647088 -92.56262263 419.16179015 -92.56800616 417.66711247 C-92.58017125 413.58599171 -92.5799834 409.50495332 -92.57761741 405.42381859 C-92.57720758 401.01190826 -92.58826414 396.60002376 -92.59773254 392.18812561 C-92.61430812 383.55382902 -92.61984054 374.91955974 -92.6209573 366.28524856 C-92.62190946 359.26238798 -92.62602813 352.23953636 -92.63235855 345.21667862 C-92.64996198 325.28025716 -92.65919889 305.34385718 -92.6576976 285.40742789 C-92.65761769 284.33383423 -92.65753778 283.26024057 -92.65745544 282.15411377 C-92.6573328 280.54174372 -92.6573328 280.54174372 -92.65720768 278.89680053 C-92.65639516 261.48489173 -92.67552678 244.0730695 -92.70373218 226.66118573 C-92.73250329 208.75796277 -92.74627013 190.85478199 -92.74454463 172.95153534 C-92.74388216 162.910238 -92.7493114 152.86903142 -92.77090073 142.82775497 C-92.78916829 134.27702503 -92.7934143 125.726427 -92.77988188 117.17568593 C-92.77338012 112.81908782 -92.77313314 108.46274236 -92.79058838 104.10616875 C-92.80644901 100.10618387 -92.80332507 96.10664921 -92.78602012 92.10667445 C-92.78297849 90.67131116 -92.78647347 89.23591315 -92.79774027 87.80059086 C-92.90499863 73.14829341 -90.24596041 59.1399038 -83.28684998 46.14044189 C-82.80731873 45.19040283 -82.32778748 44.24036377 -81.83372498 43.26153564 C-71.65684176 24.31573606 -53.68995157 10.20881013 -33.20872498 3.78497314 C-22.05888257 0.59540942 -11.52752476 -0.0082195 0 0 Z M-43.97434998 15.20294189 C-44.68003113 15.58579346 -45.38571228 15.96864502 -46.11277771 16.36309814 C-53.13469469 20.34237043 -58.71782317 25.35169628 -64.28684998 31.14044189 C-65.02290466 31.86876221 -65.75895935 32.59708252 -66.51731873 33.34747314 C-78.71540342 46.06462527 -86.39629454 64.38088152 -86.41827774 82.0374136 C-86.42211889 83.20008013 -86.42596003 84.36274667 -86.42991757 85.56064552 C-86.42905109 86.82862246 -86.42818461 88.0965994 -86.42729187 89.40299988 C-86.42987741 90.77104719 -86.4328911 92.13909375 -86.43629527 93.50713927 C-86.44434669 97.26135185 -86.44615381 101.0155453 -86.44689274 104.7697655 C-86.4487466 108.82111472 -86.45629573 112.8724541 -86.46302795 116.92379761 C-86.47659982 125.78160363 -86.48263455 134.63940511 -86.48703861 143.4972198 C-86.48980366 149.0322261 -86.49404156 154.56723067 -86.49854279 160.10223579 C-86.51073525 175.43798049 -86.52103377 190.77372379 -86.52441788 206.10947323 C-86.52463744 207.09070362 -86.52485701 208.07193401 -86.52508323 209.08289865 C-86.52530151 210.06643584 -86.52551978 211.04997303 -86.52574468 212.06331438 C-86.52618814 214.05622733 -86.5266347 216.04914028 -86.52708435 218.04205322 C-86.52730578 219.03060028 -86.52752721 220.01914733 -86.52775535 221.03765035 C-86.53170002 237.04150927 -86.54914406 253.04532256 -86.57244387 269.04916387 C-86.59619237 285.49449853 -86.60862136 301.93981034 -86.6097858 318.38516241 C-86.61070073 327.61268032 -86.61640692 336.84013882 -86.63460541 346.0676403 C-86.65005385 353.92829565 -86.65509909 361.78887324 -86.64686731 369.64954089 C-86.64297718 373.6554516 -86.64380955 377.66120592 -86.65792465 381.66709709 C-86.67076301 385.34452368 -86.66938022 389.02167799 -86.65733394 392.69910473 C-86.65448483 394.63826342 -86.6662371 396.57742725 -86.678756 398.51654762 C-86.55405001 420.96294908 -79.08059555 442.1269909 -63.23216248 458.32012939 C-40.54152785 480.52894564 -14.89747972 481.7554622 14.88719714 481.66334057 C19.26013986 481.65421236 23.63302086 481.66829788 28.00595093 481.67926025 C36.55089785 481.69696746 45.09570356 481.6932406 53.64065582 481.68160969 C60.58997201 481.67254535 67.53924885 481.67136429 74.48856926 481.67570496 C75.48077641 481.67631789 76.47298356 481.67693082 77.4952576 481.67756233 C79.51141983 481.67884133 81.52758205 481.68013819 83.54374426 481.68145269 C102.41117546 481.69283549 121.27852868 481.67978068 140.14594709 481.65825123 C156.30779137 481.64037958 172.4695207 481.64348939 188.63136292 481.66192627 C207.43668314 481.68336894 226.2419352 481.69173997 245.04726595 481.67947721 C247.05535947 481.67820312 249.06345301 481.67694564 251.07154655 481.67570496 C252.05936007 481.67508785 253.04717358 481.67447075 254.06492083 481.67383495 C261.00014609 481.67039244 267.93532782 481.67618655 274.87054634 481.68562317 C283.33041167 481.69688224 291.79012868 481.69372124 300.24997718 481.67250019 C304.55990253 481.66204255 308.86958129 481.65777685 313.17950439 481.6710968 C317.13542207 481.68313713 321.09086776 481.6762698 325.04674345 481.65518659 C326.4670981 481.65076926 327.88749379 481.65287506 329.3078214 481.66268975 C342.33649709 481.74571583 355.43519422 479.66309264 367.02565002 473.39044189 C367.68170227 473.04827637 368.33775452 472.70611084 369.01368713 472.35357666 C388.44014695 461.95494457 400.91309525 446.18286358 408.52565002 425.64044189 C411.61102351 415.03303588 412.00816267 404.01351353 411.98057556 393.04319763 C411.98432329 391.68204398 411.98892922 390.32089247 411.99430621 388.95974427 C412.00641261 385.26165096 412.00629056 381.56364893 412.00391746 377.86554039 C412.00350613 373.86063839 412.01457808 369.85576446 412.02403259 365.85087585 C412.04057433 358.02111091 412.04613899 350.19137609 412.04725735 342.36159512 C412.04821086 335.99241012 412.05233618 329.62323499 412.0586586 323.25405312 C412.07625057 305.16149409 412.0855004 287.06895869 412.08399765 268.97639104 C412.08391774 268.00306444 412.08383783 267.02973785 412.08375549 266.0269165 C412.08363285 264.56512664 412.08363285 264.56512664 412.08350773 263.07380567 C412.0826949 247.28194868 412.10183734 231.49018707 412.13003223 215.69835766 C412.15881251 199.44937727 412.17256977 183.20044333 412.17084467 166.95143682 C412.17018266 157.84244807 412.17559219 148.7335594 412.19720078 139.62459373 C412.21548021 131.86993458 412.21970452 124.11542091 412.20618193 116.36074945 C412.19968687 112.41119953 412.19940843 108.46192818 412.21688843 104.5124054 C412.61413437 77.23496985 412.61413437 77.23496985 403.90065002 51.70294189 C403.38027161 50.71850098 403.38027161 50.71850098 402.84938049 49.71417236 C392.60933642 30.72498977 377.23131009 17.03494119 356.71315002 10.14044189 C346.88643442 7.45278381 337.49477684 6.70599146 327.34963989 6.75276184 C325.85094094 6.74857845 324.35224516 6.74309546 322.85355514 6.73644203 C318.77530955 6.72210068 314.69726798 6.72619632 310.61901176 6.73360884 C306.20514125 6.73836644 301.79131325 6.72580796 297.37745667 6.71559143 C288.74623185 6.69844915 280.11507997 6.69755382 271.48384256 6.70280433 C264.46484687 6.70685547 257.44587265 6.7053913 250.42687798 6.70005608 C249.42564955 6.69930765 248.42442112 6.69855923 247.39285244 6.69778813 C245.35848888 6.69625656 243.32412532 6.69471822 241.28976177 6.69317316 C222.23878655 6.67946489 203.18785246 6.68487424 184.13687818 6.69635838 C166.73027181 6.70629104 149.32377172 6.69334651 131.91718174 6.66942418 C114.0161286 6.64500883 96.11512492 6.63543117 78.21405548 6.64207691 C68.17510793 6.64556345 58.13624211 6.64337433 48.09730721 6.62582588 C39.55244139 6.61107351 31.00771488 6.61050816 22.46285171 6.62789679 C18.10851093 6.63638381 13.7544187 6.63861287 9.40009117 6.62324524 C5.40463987 6.60931939 1.4096482 6.61426141 -2.58577705 6.63348448 C-4.02168465 6.63722074 -5.45762979 6.63439198 -6.89350372 6.62387282 C-19.99026009 6.53484158 -32.39993484 8.79528488 -43.97434998 15.20294189 Z " fill="#030303" transform="translate(93.28684997558594,0.85955810546875)"/>
<path d="M0 0 C10 19.1 10 19.1 10 27 C13.96 26.67 17.92 26.34 22 26 C27.76211336 36.58149564 31.41186357 47.51238826 35.125 58.9375 C35.7374692 60.7964917 36.35074581 62.65521758 36.96484375 64.51367188 C39.76743232 73.01877955 42.51256738 81.53819441 45.11914062 90.10571289 C46.6080264 94.99782511 48.14618354 99.87420153 49.6875 104.75 C49.99494141 105.73226562 50.30238281 106.71453125 50.61914062 107.7265625 C50.91369141 108.65726562 51.20824219 109.58796875 51.51171875 110.546875 C51.77428467 111.38057617 52.03685059 112.21427734 52.30737305 113.07324219 C52.83843794 114.98050968 52.83843794 114.98050968 54 116 C54.2423085 115.35775482 54.484617 114.71550964 54.73426819 114.05380249 C75.36220814 59.39281235 75.36220814 59.39281235 84.375 36.5 C84.66061798 35.77077332 84.94623596 35.04154663 85.24050903 34.29022217 C89.77521836 22.72741534 94.44255774 11.11488451 100 0 C107.13875773 -0.23648059 113.63034831 0.60960434 120.625 2 C121.73077393 2.21640137 122.83654785 2.43280273 123.97583008 2.65576172 C133.2840539 4.53690217 142.4913602 6.76534723 151.6875 9.125 C152.35380432 9.29467285 153.02010864 9.4643457 153.706604 9.63916016 C168.40451199 13.4028428 168.40451199 13.4028428 173 16 C174.05859375 17.8046875 174.05859375 17.8046875 174 20 C173.22265625 22.9453125 173.22265625 22.9453125 172.0625 26.125 C170.54446697 29.97447943 170.54446697 29.97447943 170 34 C170.68626465 34.176521 171.3725293 34.35304199 172.07958984 34.53491211 C175.17866558 35.33344535 178.27683821 36.13542849 181.375 36.9375 C182.45523438 37.21529297 183.53546875 37.49308594 184.6484375 37.77929688 C186.1953125 38.18051758 186.1953125 38.18051758 187.7734375 38.58984375 C188.72653809 38.83597412 189.67963867 39.08210449 190.66162109 39.33569336 C193 40 193 40 195 41 C193.45955182 49.51003688 190.39816535 57.35733002 187.25 65.375 C186.95265961 66.136987 186.65531921 66.898974 186.34896851 67.68405151 C177.2061866 91.05517761 167.06839892 114.01705141 157 137 C156.56737854 137.98877136 156.13475708 138.97754272 155.68902588 139.99627686 C145.26079358 163.83017056 134.63103247 187.56527205 123.75 211.19580078 C121.61962935 215.8236506 119.50329465 220.4578901 117.38720703 225.09228516 C116.06302187 227.98722145 114.73159646 230.87871898 113.3984375 233.76953125 C111.81173673 237.21288788 110.2573057 240.66814824 108.7265625 244.13671875 C108.02611329 245.69534469 107.32559686 247.25394042 106.625 248.8125 C106.32722656 249.50682129 106.02945313 250.20114258 105.72265625 250.91650391 C103.79769695 255.14947214 102.16844598 257.0001779 98 259 C95.13867187 259.37231445 95.13867187 259.37231445 91.96875 259.36328125 C90.18452637 259.3643689 90.18452637 259.3643689 88.36425781 259.36547852 C87.08905273 259.34799561 85.81384766 259.3305127 84.5 259.3125 C83.1809668 259.303396 81.86193359 259.29429199 80.50292969 259.28491211 C63.27848518 259.10782179 46.13345074 257.71334507 29 256 C25.535 246.595 25.535 246.595 22 237 C16.54211497 236.5017717 16.54211497 236.5017717 11.08081055 236.04394531 C10.39801025 235.97272461 9.71520996 235.90150391 9.01171875 235.828125 C8.31522217 235.7652832 7.61872559 235.70244141 6.90112305 235.63769531 C4.22225283 234.73911961 3.54300865 233.3482973 2 231 C1.20310347 229.15476849 0.47677739 227.27831416 -0.19799805 225.38500977 C-0.60722504 224.24747757 -1.01645203 223.10994537 -1.43807983 221.9379425 C-1.87488068 220.70158554 -2.31168152 219.46522858 -2.76171875 218.19140625 C-3.22853814 216.88574693 -3.69596896 215.58030608 -4.16397095 214.27507019 C-5.41907623 210.7691699 -6.66560598 207.26027727 -7.91043472 203.75071716 C-9.21378175 200.08048967 -10.52466443 196.41295538 -11.8347168 192.74511719 C-13.93155579 186.8714825 -16.0237757 180.99622333 -18.11230469 175.11962891 C-20.54747966 168.26786836 -22.9936641 161.42010372 -25.4453125 154.57421875 C-37.97210251 119.56356434 -50.40335092 84.49760944 -61.875 49.125 C-62.23422546 48.01934692 -62.23422546 48.01934692 -62.60070801 46.89135742 C-64.09833017 42.2702582 -65.56017351 37.63944092 -67 33 C-67.20500122 32.35140015 -67.41000244 31.70280029 -67.62121582 31.0345459 C-68.22068038 29.12840727 -68.80204558 27.21660591 -69.3828125 25.3046875 C-69.71941895 24.20882324 -70.05602539 23.11295898 -70.40283203 21.98388672 C-71.04172025 18.79153519 -71.20529889 17.02580914 -70 14 C-66.84071901 11.57594735 -63.72589819 10.46440935 -59.88671875 9.53515625 C-58.89736328 9.29434326 -57.90800781 9.05353027 -56.88867188 8.80541992 C-55.83228516 8.56025635 -54.77589844 8.31509277 -53.6875 8.0625 C-52.59115234 7.80380127 -51.49480469 7.54510254 -50.36523438 7.27856445 C-34.07280886 3.52799966 -16.81118697 -0.35768483 0 0 Z M-64 17 C-64.36366615 22.43767488 -63.07391033 26.67083384 -61.375 31.75 C-60.91746338 33.14919678 -60.91746338 33.14919678 -60.45068359 34.57666016 C-59.52583859 37.39421123 -58.59167159 40.20853053 -57.65551758 43.02233887 C-56.95530048 45.13485605 -56.26115777 47.24929636 -55.56835938 49.36425781 C-47.21522971 74.86200104 -38.40778577 100.18217518 -29.39260864 125.45254517 C-26.64196246 133.1724258 -23.92576292 140.90398259 -21.22265625 148.640625 C-11.81276502 175.5574008 -2.17661363 202.36291597 8 229 C23.64841888 231.31578613 39.1892186 232.19987273 54.99584961 232.24023438 C57.35628482 232.25018457 59.71593041 232.2814729 62.07617188 232.3125 C63.58853662 232.31901111 65.10090741 232.32426894 66.61328125 232.328125 C67.66313957 232.3466452 67.66313957 232.3466452 68.73420715 232.36553955 C72.447062 232.34945787 72.447062 232.34945787 75.7668457 230.85791016 C77.45664436 228.31200484 78.78865507 225.69891711 80.1171875 222.9453125 C80.41042908 222.34068176 80.70367065 221.73605103 81.00579834 221.11309814 C81.96920514 219.12035492 82.92255284 217.12300223 83.875 215.125 C84.54861788 213.72214517 85.22228393 212.31931346 85.89599609 210.91650391 C91.9696247 198.22557428 97.73737821 185.40652723 103.42919922 172.54003906 C105.47367923 167.93249162 107.5448262 163.33717439 109.61572266 158.74145508 C136.19860655 99.75726369 136.19860655 99.75726369 160.5 39.8125 C160.77816559 39.08781525 161.05633118 38.36313049 161.34292603 37.6164856 C162.11963169 35.58623468 162.88961179 33.55360239 163.65625 31.51953125 C164.08744141 30.37589111 164.51863281 29.23225098 164.96289062 28.05395508 C165.87655273 25.36351268 166.52746975 22.79700051 167 20 C157.71504104 16.08778308 148.06625794 14.02136537 138.25732422 11.90795898 C135.50371436 11.31330214 132.75379568 10.70340092 130.00390625 10.09179688 C121.37038865 8.19604177 112.86462531 6.35309559 104 6 C99.42018651 14.55175611 95.89772879 23.4806436 92.375 32.5 C91.72171691 34.16375159 91.06839546 35.82748813 90.41503906 37.49121094 C81.75788193 59.58933476 73.39580083 81.80167632 65 104 C61.8870042 112.23055272 58.77217241 120.46040189 55.6529541 128.68859863 C54.39242021 132.01650926 53.13511449 135.34562771 51.87792969 138.67480469 C51.11409186 140.69081567 50.35010288 142.7067694 49.5859375 144.72265625 C49.23584625 145.65237747 48.885755 146.58209869 48.52505493 147.53999329 C48.20531708 148.38152451 47.88557922 149.22305573 47.55615234 150.09008789 C47.27814789 150.82530167 47.00014343 151.56051544 46.7137146 152.31800842 C46 154 46 154 45 155 C44.69707031 154.01902344 44.39414063 153.03804687 44.08203125 152.02734375 C41.98408062 145.26126255 39.85183631 138.51698491 37.5625 131.8125 C35.24439554 124.93062739 33.26425271 117.9767612 31.30541992 110.98535156 C29.45497816 104.4415543 27.41301641 97.98639053 25.17993164 91.56323242 C23.25853325 85.98456099 21.6495385 80.33350076 20.04443359 74.65649414 C15.38180164 58.33292267 10.15559019 42.1731964 4.625 26.125 C4.20847168 24.91384521 3.79194336 23.70269043 3.36279297 22.45483398 C1.42292644 16.87663123 -0.56745199 11.38299334 -3 6 C-23.43720592 6 -44.32994442 11.89935111 -64 17 Z " fill="#040404" transform="translate(194,113)"/>
<path d="M0 0 C2.22066873 2.22066873 3.25486871 4.27181275 4.6875 7.0625 C15.21349635 26.54193421 32.30060401 39.73933741 53 47 C63.15119738 49.66097591 72.86444057 50.43378209 83.35209656 50.3742218 C84.83729629 50.37697018 86.32249406 50.38102888 87.8076871 50.38626546 C91.84387276 50.39674698 95.87983354 50.38879269 99.91600907 50.37751496 C104.28616814 50.36860771 108.65629984 50.37713507 113.02645874 50.38337708 C121.56898579 50.39282864 130.11142792 50.38629766 138.65394863 50.37411413 C148.61318652 50.3604429 158.57240455 50.36213645 168.53164945 50.36424746 C186.30570358 50.36743191 204.07971754 50.35580003 221.85375977 50.33618164 C239.08163679 50.31717123 256.30946675 50.31009704 273.53735352 50.31567383 C292.32429719 50.32173736 311.11122022 50.32154468 329.89816219 50.310188 C331.90284494 50.30898077 333.9075277 50.30777479 335.91221046 50.30657005 C336.89841269 50.30596651 337.88461491 50.30536298 338.90070206 50.30474115 C345.8352644 50.30086931 352.76981904 50.30125274 359.70438194 50.3031559 C368.15815101 50.30528221 376.61187897 50.30002054 385.06563648 50.28554235 C389.37498762 50.27832017 393.68427902 50.27420272 397.99363518 50.27878571 C401.9443647 50.28288499 405.89497129 50.27763219 409.84568224 50.26515963 C411.26871908 50.26225041 412.69176765 50.26263699 414.11480137 50.26680271 C426.38675354 50.29944356 437.53876126 49.12907848 448.9375 44.4375 C449.79722412 44.08598877 450.65694824 43.73447754 451.54272461 43.37231445 C471.71522635 34.80471861 485.58194072 19.4541787 495 0 C497.69666484 8.08999451 490.99522366 19.51992724 487.7265625 26.859375 C478.47967928 45.35314143 461.51003813 57.45765351 442.7265625 64.82421875 C432.06976883 68.18658237 422.15004139 69.43992627 410.99798584 69.38768005 C409.52632406 69.39186255 408.0546655 69.39734505 406.58301282 69.40399987 C402.5747775 69.41835348 398.56674957 69.41424162 394.55850339 69.40683305 C390.22160534 69.40207842 385.88475069 69.41463151 381.54786682 69.42485046 C373.06489326 69.44199983 364.5819939 69.4428864 356.09900752 69.43763756 C349.19918882 69.43358692 342.29939195 69.43505002 335.39957428 69.44038582 C334.41543998 69.44113424 333.43130567 69.44188266 332.41734912 69.44265376 C330.41769748 69.44418534 328.41804586 69.44572368 326.41839424 69.44726873 C307.68783469 69.46098015 288.95731697 69.45556595 270.22675839 69.44408352 C253.11889904 69.43415564 236.01114792 69.44708655 218.90330526 69.47101771 C201.30737728 69.49544481 183.71149963 69.50500753 166.11555505 69.49836498 C156.24867369 69.49488039 146.38187549 69.49705434 136.51500702 69.51461601 C128.11436869 69.52938335 119.71387207 69.52991463 111.31323639 69.5125451 C107.03358814 69.50406932 102.75419254 69.50180095 98.47455788 69.51719666 C58.93404506 69.64934324 58.93404506 69.64934324 43.5 61.1875 C42.84330322 60.84348145 42.18660645 60.49946289 41.51000977 60.14501953 C36.2146156 57.29471094 31.53626417 53.9491068 27 50 C26.41347656 49.55527344 25.82695313 49.11054688 25.22265625 48.65234375 C11.56698641 38.03126721 3.52279493 20.58558109 0 4 C0 2.68 0 1.36 0 0 Z " fill="#BDBDBD" transform="translate(8,437)"/>
</svg>
